<?xml version="1.0" encoding="utf-8"?>
<!-- Generator: Adobe Illustrator 23.1.0, SVG Export Plug-In . SVG Version: 6.00 Build 0)  -->
<svg version="1.1" id="Layer_1" xmlns="http://www.w3.org/2000/svg" xmlns:xlink="http://www.w3.org/1999/xlink" x="0px" y="0px"
	 viewBox="0 0 189.3 189.2" style="enable-background:new 0 0 189.3 189.2;" xml:space="preserve">
<style type="text/css">
	.st0{opacity:0.96;fill:#03A9F4;}
	.st1{fill:#03A9F4;}
</style>
<path class="st0" d="M186.3,30.3H77.9c-1.7,0-3-1.3-3-3v-9.4c0-1.7,1.3-3,3-3h108.4c1.7,0,3,1.3,3,3v9.4
	C189.3,29,187.9,30.3,186.3,30.3z"/>
<path class="st1" d="M186.3,102.3H77.9c-1.7,0-3-1.3-3-3v-9.4c0-1.7,1.3-3,3-3h108.4c1.7,0,3,1.3,3,3v9.4
	C189.3,101,187.9,102.3,186.3,102.3z"/>
<path class="st1" d="M186.3,174.3H77.9c-1.7,0-3-1.3-3-3v-9.4c0-1.7,1.3-3,3-3h108.4c1.7,0,3,1.3,3,3v9.4
	C189.3,173,187.9,174.3,186.3,174.3z"/>
<path class="st1" d="M45.2,22.8c0.1,12-9.9,22.4-21.5,22.5C10,45.4,0,35.8,0,22.7C0,10.1,9.7,0.1,22.1,0
	C35.5-0.1,45.1,9.4,45.2,22.8z"/>
<path class="st1" d="M45.2,94.6c0,12.9-9.9,22.6-22.9,22.6C9.8,117.2,0,107.1,0,94.4C0,81.7,10,71.9,22.7,72
	C35.4,72,45.2,81.9,45.2,94.6z M22.3,101.8c3.9,0.1,7.4-3.1,7.5-6.9c0.1-4.1-3.1-7.4-7.3-7.5c-3.5-0.1-6.9,3.2-7.1,6.9
	C15.2,98,18.5,101.7,22.3,101.8z"/>
<path class="st1" d="M45.2,166.4c-0.1,13.4-9.7,22.9-23.1,22.8C9.6,189.1-0.1,179,0,166.2c0.1-12.8,10.2-22.3,23.7-22.2
	C35.3,144.1,45.3,154.5,45.2,166.4z M22.9,159.4c-3.7-0.1-7.3,3.1-7.5,6.9c-0.2,3.8,3.3,7.5,7.1,7.6c3.7,0.1,7.2-3.3,7.3-7
	C30,163.1,26.6,159.5,22.9,159.4z"/>
</svg>
